<svg width="10" height="6" viewBox="0 0 10 6" fill="none" xmlns="http://www.w3.org/2000/svg">
<path d="M5.47336 3.93359C5.41138 3.99607 5.33765 4.04567 5.25641 4.07952C5.17517 4.11336 5.08803 4.13079 5.00002 4.13079C4.91202 4.13079 4.82488 4.11336 4.74364 4.07952C4.6624 4.04567 4.58867 3.99607 4.52669 3.93359L1.47335 0.873588C1.41138 0.811103 1.33764 0.761506 1.25641 0.72766C1.17517 0.693815 1.08803 0.67639 1.00002 0.67639C0.912012 0.67639 0.824875 0.693815 0.743636 0.72766C0.662396 0.761506 0.588662 0.811103 0.526687 0.873588C0.402519 0.998497 0.332825 1.16746 0.332825 1.34359C0.332825 1.51971 0.402519 1.68868 0.526687 1.81359L3.58669 4.87359C3.96169 5.24812 4.47002 5.4585 5.00002 5.4585C5.53003 5.4585 6.03836 5.24812 6.41336 4.87359L9.47336 1.81359C9.59653 1.68941 9.66596 1.52182 9.6667 1.34692C9.6672 1.25918 9.65039 1.17221 9.61721 1.09098C9.58403 1.00976 9.53515 0.935882 9.47336 0.873588C9.41139 0.811103 9.33765 0.761506 9.25641 0.72766C9.17517 0.693815 9.08804 0.67639 9.00003 0.67639C8.91202 0.67639 8.82488 0.693815 8.74364 0.72766C8.6624 0.761506 8.58867 0.811103 8.5267 0.873588L5.47336 3.93359Z" fill="#FD9222"/>
</svg>
